<?xml version="1.0"?><svg width="1600" height="1200" xmlns="http://www.w3.org/2000/svg">
 <!-- Created with SVG-edit - http://svg-edit.googlecode.com/ -->
 <title>boat</title>
 <defs>
  <filter height="200%" width="200%" y="-50%" x="-50%" id="svg_62_blur">
   <feGaussianBlur stdDeviation="2.8" in="SourceGraphic"/>
  </filter>
 </defs>
 <g>
  <title>Layer 1</title>
  <g externalResourcesRequired="false" id="layer1">
   <g id="svg_2" transform="matrix(3.29604 0.372867 -0.500159 2.45716 1385.08 738.557)">
    <path id="svg_3" fill="none" fill-rule="evenodd" stroke="#000000" stroke-width="7" stroke-linecap="round" stroke-linejoin="round" marker-start="none" marker-mid="none" marker-end="none" stroke-miterlimit="4" stroke-dashoffset="0" d="m-78.973343,-222.243149c-10.768997,0.347992 -26.568802,5.050003 -34.968796,15.375c-11.431999,14.051987 -31.289017,10.176987 -42.281006,4.750015l-0.219009,-9.875015l-0.218002,0c-0.508987,-0.612015 -2.038986,-1.111008 -3.812988,-1.186996c-1.774002,-0.075989 -3.240005,0.301987 -3.656006,0.875c-0.011002,0.016006 -0.022003,0.046005 -0.031006,0.061996c-0.002991,0.005997 -0.028992,0.025986 -0.031998,0.031998c-0.001999,0.005005 0.003006,0.024994 0,0.031006c-0.001999,0.006012 -0.028992,0.025009 -0.030991,0.031006c-0.003998,0.011993 0.002991,0.050995 0,0.062988c-0.001007,0.005997 0.000992,0.024994 0,0.030991c-0.001007,0.006012 0.000992,0.025009 0,0.031006c-0.001007,0.009003 0,0.054001 0,0.063004c0,0.005997 0,0.024994 0,0.030991c0.000992,0.006012 -0.001007,0.025009 0,0.031006c0.001999,0.012009 -0.003006,0.050995 0,0.063004c0.006989,0.024017 0.020996,0.070007 0.030991,0.093002c0.003006,0.005997 0.029007,0.025986 0.031998,0.031998c0.003006,0.006012 -0.003998,0.024994 0,0.030991c0.003006,0.006012 0.027008,0.025009 0.031006,0.031006c0.003998,0.005997 0.027008,0.026001 0.031006,0.031006l-0.156006,0l5.311996,256.9072c-116.878983,14.202999 -173.724991,35.089001 -230.311996,55.343998c0,0.000999 0,0.028999 0,0.031006c0,0.002998 0,0.028 0,0.030998c0.001007,0.001999 0.029999,0.028999 0.031006,0.030998c1.23999,1.133003 7.062988,8.950798 22.125,23.218803c0.002991,0.003998 0.028992,0.028 0.031006,0.030998c8.695984,8.249992 20.47998,22.401985 36.530975,31.312996c17.497009,9.712006 39.811005,19.140991 68.563019,26.781006c110.468002,-0.93399 207.9828,-22.380997 237.843601,-32.311996c9.149,-3.043015 19.58534,-16.638992 27.25004,-27.313004c0.048599,-0.068001 0.107895,-0.151001 0.156296,-0.219002c0.012001,-0.016998 0.047104,-0.068001 0.062401,-0.093002c0.015099,-0.030998 0.044098,-0.094002 0.0625,-0.125c6.056602,-8.586998 10.347063,-18.575996 14.718763,-27.531799c0.125198,-0.059998 0.252098,-0.126999 0.375,-0.186996c7.6691,-15.617004 11.9063,-24.125 11.9063,-24.125c-0.843401,0.176994 -1.689001,0.354996 -2.5313,0.530998c0.841599,-0.249001 1.688499,-0.5 2.5313,-0.75c-13.8654,-4.526001 -26.734064,-8.936001 -39.843801,-12.969002l0.4687,-9.687l0.125,-0.030998l0.6875,-7.969002l-4.3125,-1.468998l-47.719001,6.688c-12.673996,-2.221001 -26.507996,-3.968002 -42.186798,-5.094002c-17.338997,1.535 -33.556007,3.166 -48.781013,4.937l-3.343994,-162.375198c15.705994,6.519997 25.858994,-0.986 44.031006,-11.844002c19.092804,-11.406998 34.5998,-7.095001 47.9058,-1.499985l-0.125,-84.906006c-0.089996,-0.057007 -0.810997,-0.528015 -6.375,-4.25c-1.787994,-1.196014 -5.189995,-1.802002 -9.405998,-1.719009c-0.167999,0.004013 -0.329002,-0.00499 -0.5,0zm-310.530807,322.8442c0,0.003998 0,0.028999 0,0.031998c0.002991,-0.000999 0.028015,0 0.031006,0c0.010986,0.005005 0.052002,0.025002 0.061981,0.031006c0.001007,-0.012001 0,-0.052002 0,-0.063004c-0.001984,0 -0.026978,0 -0.030975,0c-0.003021,0 -0.027008,0 -0.031006,0c-0.001007,0 -0.024017,0 -0.031006,0z"/>
    <path id="svg_4" fill="#4b3c21" fill-rule="evenodd" stroke="#000000" stroke-linecap="round" stroke-linejoin="round" marker-start="none" marker-mid="none" marker-end="none" stroke-miterlimit="4" stroke-dashoffset="0" d="m-34.081745,47.21405l25.123302,0l-2.3927,48.333l-22.730601,-48.333z"/>
    <path id="svg_5" fill="#1d1d1d" fill-rule="evenodd" stroke="#000000" stroke-miterlimit="4" d="m-157.45015,-202.757156c10.677002,5.735001 31.650002,10.485016 43.52301,-4.108994c11.872993,-14.592987 38.5028,-17.906006 44.861794,-13.653c6.359001,4.254013 6.359001,4.254013 6.359001,4.254013l0.129005,84.884979c-13.306999,-5.595978 -28.813004,-9.898987 -47.9058,1.509003c-19.094009,11.407005 -29.307007,19.104004 -46.440018,10.733009l-0.526993,-83.619011z"/>
    <g id="svg_6" stroke="#000000" stroke-width="3.262098" stroke-miterlimit="4" transform="matrix(0.309804 -0.103018 0.0211 0.296316 289.076 86.7702)">
     <path id="svg_7" fill="#bbbbbb" fill-rule="evenodd" stroke="#000000" stroke-width="3.262098" stroke-linecap="round" stroke-linejoin="round" marker-start="none" marker-mid="none" marker-end="none" stroke-miterlimit="4" stroke-dashoffset="0" d="m-1293.451538,-1332.646606l181.430054,130.710083c-20.160034,18.819946 35.130005,52.25 25.699951,-0.710083c61.47998,-13.799927 -1.410034,-50.630005 -11.420044,-18.579956l-174.279907,-130.709961c17.149902,-24.320068 -40.600098,-37.070068 -24.300049,-2.140015c-44.280029,-15.719971 -21.420044,48.569946 2.869995,21.429932z"/>
     <path id="svg_8" fill="#bbbbbb" fill-rule="evenodd" stroke="#000000" stroke-width="3.262098" stroke-linecap="round" stroke-linejoin="round" marker-start="none" marker-mid="none" marker-end="none" stroke-miterlimit="4" stroke-dashoffset="0" d="m-1288.431519,-1208.876587l198.27002,-103.400024c7.75,26.470093 62.469971,-7.929932 10.909912,-23.289917c15.280029,-61.119995 -45.879883,-21.469971 -21.719971,1.869995l-195.069946,97.01001c-14.030029,-26.25 -51.359985,19.619995 -12.830078,20.73999c-33.919922,32.51001 33.77002,40.959961 20.440063,7.069946z"/>
     <path id="svg_9" fill="#000000" fill-opacity="0.719243" fill-rule="evenodd" stroke="#000000" stroke-width="3.262098" stroke-linecap="round" stroke-linejoin="round" marker-start="none" marker-mid="none" marker-end="none" stroke-miterlimit="4" stroke-dashoffset="0" d="m-1190.321533,-1350.606567c-39.079956,1.369995 -70.280029,27.170044 -70.280029,58.719971c0,22.810059 16.330078,42.650024 40.140015,52.369995l0,50.910034l66.859985,0l0,-50.910034c23.810059,-9.719971 40.140015,-29.559937 40.140015,-52.369995c0,-32.429932 -32.959961,-58.719971 -73.579956,-58.719971c-0.469971,0 -0.930054,-0.01001 -1.390015,0c-0.170044,0 -0.310059,0 -0.47998,0c-0.160034,0 -0.340088,0 -0.5,0c-0.140015,0 -0.27002,0 -0.440063,0c-0.150024,0.01001 -0.309937,0 -0.469971,0z"/>
     <path id="svg_10" fill="#bbbbbb" fill-rule="evenodd" stroke="#000000" stroke-width="3.262098" stroke-linecap="round" stroke-linejoin="round" marker-start="none" marker-mid="none" marker-end="none" stroke-miterlimit="4" stroke-dashoffset="0" d="m-1189.401489,-1350.606567c-39.52002,1 -71.180054,26.940063 -71.180054,58.72998c0,22.810059 16.300049,42.630005 40.109985,52.359985l0,50.920044l66.890015,0l0,-50.920044c23.820068,-9.72998 40.109985,-29.549927 40.109985,-52.359985c0,-32.419922 -32.949951,-58.72998 -73.549927,-58.72998c-0.48999,0 -0.950073,-0.01001 -1.420044,0c-0.160034,0 -0.319946,0 -0.47998,0c-0.160034,0 -0.310059,0 -0.47998,0zm-25.290039,16.959961c0.050049,0 0.089966,0 0.150024,0c0.150024,-0.009888 0.319946,0 0.469971,0c13.530029,0 24.47998,18.27002 24.47998,40.790039c0,22.52002 -10.949951,40.790039 -24.47998,40.790039c-13.52002,0 -24.47998,-18.27002 -24.47998,-40.790039c0,-22.170044 10.630005,-40.22998 23.859985,-40.790039zm54.23999,0c0.160034,-0.009888 0.300049,0 0.459961,0c13.530029,0 24.5,18.27002 24.5,40.790039c0,22.52002 -10.969971,40.790039 -24.5,40.790039c-13.519897,0 -24.47998,-18.27002 -24.47998,-40.790039c0,-22.26001 10.710083,-40.369995 24.02002,-40.790039z"/>
     <rect id="svg_11" fill="#bbbbbb" fill-rule="evenodd" stroke="#000000" stroke-width="3.262098" stroke-linecap="round" stroke-linejoin="round" stroke-miterlimit="4" stroke-dashoffset="0" width="16.710531" height="51.238281" x="-1220.268044" y="-1239.161917"/>
     <rect id="svg_12" fill="#bbbbbb" fill-rule="evenodd" stroke="#000000" stroke-width="3.262098" stroke-linecap="round" stroke-linejoin="round" stroke-miterlimit="4" stroke-dashoffset="0" width="16.710531" height="51.238281" x="-1203.557513" y="-1239.161917"/>
     <rect id="svg_13" fill="#bbbbbb" fill-rule="evenodd" stroke="#000000" stroke-width="3.262098" stroke-linecap="round" stroke-linejoin="round" stroke-miterlimit="4" stroke-dashoffset="0" width="16.710531" height="51.238281" x="-1186.846986" y="-1239.161917"/>
     <rect id="svg_14" fill="#bbbbbb" fill-rule="evenodd" stroke="#000000" stroke-width="3.262098" stroke-linecap="round" stroke-linejoin="round" stroke-miterlimit="4" stroke-dashoffset="0" y="-1239.161917" x="-1170.136452" height="51.238281" width="16.710531"/>
    </g>
    <path id="svg_15" fill="#b28f53" fill-rule="evenodd" stroke="#000000" stroke-linecap="round" stroke-linejoin="round" marker-start="none" marker-mid="none" marker-end="none" stroke-miterlimit="4" stroke-dashoffset="0" d="m30.395456,69.944054c-41.9446,-13.693001 -74.751802,-26.376003 -132.780596,-30.543003c-156.489006,13.856003 -221.879997,37.946003 -286.931999,61.230999c80.296997,51.663803 236.525986,23.594803 419.712595,-30.687996z"/>
    <path id="svg_16" fill="#4b3c21" fill-rule="evenodd" stroke="#000000" stroke-linecap="round" stroke-linejoin="round" marker-start="none" marker-mid="none" marker-end="none" stroke-miterlimit="4" stroke-dashoffset="0" d="m13.507957,68.939049c-38.9654,-12.719997 -62.407302,-21.373997 -116.314101,-25.244999c-133.64901,11.661003 -214.47599,35.768002 -274.254005,56.076c97.359009,19.532799 288.796806,-10.028 390.568107,-30.831001z"/>
    <path id="svg_17" fill="#67522e" fill-rule="evenodd" stroke="#000000" stroke-linecap="round" stroke-linejoin="round" marker-start="none" marker-mid="none" marker-end="none" stroke-miterlimit="4" stroke-dashoffset="0" d="m-220.288147,78.282051l1.688995,5.826004l52.186996,13.486l13.01001,-1.544006"/>
    <path id="svg_18" fill="#7d6438" fill-rule="evenodd" stroke="#000000" stroke-linecap="round" stroke-linejoin="round" marker-start="none" marker-mid="none" marker-end="none" stroke-miterlimit="4" stroke-dashoffset="0" d="m-104.604141,89.577049l-58.734009,-16.879997l-57.093002,5.68l67.094009,17.691002c15.796997,-1.764 32.257004,-4.124001 48.733002,-6.491005z"/>
    <path id="svg_19" fill="#4b3c21" fill-rule="evenodd" stroke="#000000" stroke-linecap="round" stroke-linejoin="round" marker-start="none" marker-mid="none" marker-end="none" stroke-miterlimit="4" stroke-dashoffset="0" d="m-164.242157,-211.603149l7.806,-0.391006l6.098007,296.266205c-0.098007,3.209999 -7.440002,3.329002 -7.806,0.390999l-6.098007,-296.266197z"/>
    <path id="svg_20" fill="#7d6438" fill-rule="evenodd" stroke="#000000" stroke-linecap="round" stroke-linejoin="round" stroke-miterlimit="4" d="m-330.535156,155.276855c4.291992,0.223999 325.527952,-31.483002 334.000845,-33.265007c-7.692093,10.738014 -18.315434,24.670006 -27.593434,27.754997c-29.860601,9.932007 -127.382402,31.356003 -237.850405,32.290009c-28.752014,-7.639008 -51.061005,-17.067993 -68.557007,-26.779999z"/>
    <path id="svg_21" fill="#745c33" fill-rule="evenodd" stroke="#000000" stroke-linecap="round" stroke-linejoin="round" stroke-miterlimit="4" d="m-367.292145,123.92585c6.656006,2.926003 383.7869,-29.510796 385.686201,-30.009796c-4.5403,9.244797 -8.94157,19.658798 -15.287369,28.517799c-22.36263,10.126999 -275.648832,56.791992 -333.641843,32.843002c-16.140991,-8.959991 -28.048004,-23.122009 -36.756989,-31.351006z"/>
    <path id="svg_22" fill="#6e5831" fill-rule="evenodd" stroke="#000000" stroke-linecap="round" stroke-linejoin="round" stroke-miterlimit="4" d="m-389.516144,100.642052c82.02298,19.180801 239.067993,7.556801 419.9116,-30.470001c0,0 -4.223301,8.502998 -11.892401,24.120003c-57.706402,28.366798 -357.797215,55.522797 -385.218204,29.962799c-17.403015,-16.445999 -22.742004,-24.410797 -22.800995,-23.612801z"/>
    <path id="svg_23" fill="#43341d" fill-rule="evenodd" stroke="#000000" stroke-linecap="round" stroke-linejoin="round" marker-start="none" marker-mid="none" marker-end="none" stroke-miterlimit="4" stroke-dashoffset="0" d="m-102.476143,43.785053c0,0 8.680801,22.498997 -1.766998,45.568996c55.129799,-7.125 117.322527,-20.421997 117.322527,-20.421997c-35.02813,-12.387001 -75.95273,-23.461002 -115.555529,-25.146999z"/>
    <path id="svg_24" fill="#4b3c21" fill-rule="evenodd" stroke="#000000" stroke-width="1.058905" stroke-linecap="round" stroke-linejoin="round" marker-start="none" marker-mid="none" marker-end="none" stroke-miterlimit="4" stroke-dashoffset="0" d="m-156.475143,-211.607162a3.88104,1.41457 0 1 1 -7.762009,-0.332001a3.88104,1.41457 0 1 1 7.762009,0.332001z"/>
    <g id="svg_25" fill="#4b3c21" stroke="#000000" stroke-width="0.731654" stroke-miterlimit="4" transform="matrix(1.11957 0.235741 0 1.66855 -92.0413 33.2015)">
     <rect id="svg_26" fill="#4b3c21" fill-rule="evenodd" stroke="#000000" stroke-width="0.758583" stroke-linecap="round" stroke-linejoin="round" stroke-miterlimit="4" stroke-dashoffset="0" transform="matrix(0.969613 -0.244644 -0.128168 0.991752 0 0)" y="12.473089" x="33.402016" height="4.901706" width="45.528324"/>
     <path id="svg_27" fill="#4b3c21" fill-rule="evenodd" stroke="#000000" stroke-width="0.758583" stroke-linecap="round" stroke-linejoin="round" marker-start="none" marker-mid="none" marker-end="none" stroke-miterlimit="4" stroke-dashoffset="0" d="m30.788342,4.198328l44.144901,-11.138l-3.853699,-0.33701l-45.470703,10.69602l5.179501,0.77899z"/>
     <path id="svg_28" fill="#4b3c21" fill-rule="evenodd" stroke="#000000" stroke-width="0.758583" stroke-linecap="round" stroke-linejoin="round" marker-start="none" marker-mid="none" marker-end="none" stroke-miterlimit="4" stroke-dashoffset="0" d="m30.788342,4.198328l-0.649101,4.867l-4.264,-0.842999l-0.266399,-4.80299l5.179501,0.77899z"/>
    </g>
    <path id="svg_29" fill="none" fill-opacity="0.75" fill-rule="evenodd" stroke="#000000" stroke-width="3.9" stroke-miterlimit="4" d="m-154.875153,-204.105164l2.020004,92.555016"/>
   </g>
   <path id="svg_62" d="m970.61676,114.30204l363.999939,0l0,345.901176l-363.999939,0l0,-345.901176z" transform="rotate(8.88066 1152.62 287.253)" filter="url(#svg_62_blur)" stroke-linecap="round" stroke-linejoin="null" stroke-dasharray="null" stroke-width="0" stroke="#000000" fill="#ffffff"/>
  </g>
 </g>
</svg>